<?xml version="1.0" encoding="utf-8"?>
<!-- Generator: Adobe Illustrator 25.2.1, SVG Export Plug-In . SVG Version: 6.00 Build 0)  -->
<svg version="1.1" id="Camada_1" xmlns="http://www.w3.org/2000/svg" xmlns:xlink="http://www.w3.org/1999/xlink" x="0px" y="0px"
	 viewBox="0 0 835.5 810.2" style="enable-background:new 0 0 835.5 810.2;" xml:space="preserve">
<style type="text/css">
	.st0{fill:none;stroke:#1ED77A;stroke-width:136;}
	.st1{opacity:0.4;fill:none;stroke:#1ED77A;stroke-width:12;enable-background:new    ;}
	.st2{fill:none;stroke:#FFFFFF;stroke-width:2;}
	.st3{fill:#FFFFFF;}
</style>
<path class="st0" d="M68,424.2c0.4,171.2,152.3,318.4,350.5,318c198.2-0.4,349.4-148.3,349-319.5C767,251.6,615.1,104.4,417,104.8
	S67.6,253.1,68,424.2z"/>
<path class="st1" d="M196.3,424c0.3,112.6,99.2,204.4,221.9,204.1c122.8-0.3,221.2-92.5,220.9-205
	c-0.3-112.6-99.2-204.4-221.9-204.1C294.5,219.2,196,311.4,196.3,424z"/>
<path class="st2" d="M119.4,66.3c-3-1-6,1.4-5.4,4.3l5.3,24.9c0.6,2.9,4.4,4.1,6.8,2.2l20.7-16.7c2.4-1.9,1.6-5.6-1.4-6.5
	L119.4,66.3z"/>
<path class="st3" d="M597.3,26.3c-2.1-1-4.5,0.4-4.4,2.6l0.5,13.8c0.1,2.3,2.8,3.6,4.8,2.5l12.7-7.4c2-1.2,1.8-4-0.3-5.1L597.3,26.3
	z"/>
<ellipse class="st3" cx="220.9" cy="24.2" rx="7.3" ry="6.8"/>
<path class="st2" d="M517.1,9.7c0,4.7,4.2,8.7,9.5,8.7c5.3,0,9.5-4,9.5-8.7S531.9,1,526.5,1C521.2,1,517.1,5,517.1,9.7z"/>
<g>
</g>
<g>
</g>
<g>
</g>
<g>
</g>
<g>
</g>
<g>
</g>
</svg>
