<svg width="177" height="361" viewBox="0 0 177 361" fill="none" xmlns="http://www.w3.org/2000/svg">
<path d="M176.863 16.9997V343.878C176.863 345.979 176.481 348.016 175.781 349.863C173.361 356.293 167.122 360.878 159.863 360.878H45.7679C36.3448 360.878 28.1315 353.237 28.1315 343.878V16.9997C28.1315 7.64032 37.4272 0 45.1312 0H159.863C169.223 0 176.863 7.64032 176.863 16.9997Z" fill="#EFF2F6"/>
<path d="M176.863 16.9997V19.1645H151.523V0H159.863C169.223 0 176.863 7.64032 176.863 16.9997Z" fill="url(#paint0_linear_2_929)" fill-opacity="0.3"/>
<path d="M176.535 347.062L175.781 349.863C173.361 356.294 167.122 360.878 159.863 360.878H142.991V346.998H176.535V347.062Z" fill="url(#paint1_linear_2_929)" fill-opacity="0.3"/>
<path d="M152.095 0C161.519 0 169.095 7.64032 169.095 16.9997V343.878C169.095 353.301 161.455 360.878 152.095 360.878H16.9997C7.64032 360.878 0 353.301 0 343.878V16.9997C0 7.64032 7.64032 0 16.9997 0H152.095Z" fill="#E5E9EE"/>
<g filter="url(#filter0_f_2_929)">
<path d="M161.391 2.80127C163.492 4.01099 165.339 5.79373 166.739 7.89481C168.14 9.9959 168.904 12.4153 169.159 14.8984C169.286 16.1081 169.223 17.3815 169.286 18.5913V22.2841V29.6697L169.223 59.0849L169.095 117.979L168.968 59.0849L168.904 29.6697V22.2841V18.5913C168.904 17.3815 168.904 16.1718 168.713 14.9621C168.013 10.1232 165.339 5.73006 161.391 2.80127Z" fill="white"/>
</g>
<g filter="url(#filter1_f_2_929)">
<path d="M161.769 2.95312C163.87 4.16284 165.716 5.94558 167.117 8.04667C168.518 10.1478 169.282 12.5672 169.537 15.0503C169.664 16.26 169.6 17.5334 169.664 18.7431V22.4359V29.8216L169.6 59.2368L169.473 118.131L169.346 59.2368L169.282 29.8216V22.4359V18.7431C169.282 17.5334 169.282 16.3237 169.091 15.114C168.391 10.2751 165.716 5.88191 161.769 2.95312Z" fill="white"/>
</g>
<path opacity="0.3" d="M172.915 106.519C172.151 106.519 171.578 105.882 171.578 105.182V70.4821C171.578 69.718 172.215 69.145 172.915 69.145C173.679 69.145 174.252 69.7817 174.252 70.4821V105.182C174.316 105.946 173.679 106.519 172.915 106.519Z" fill="#9094A1"/>
<defs>
<filter id="filter0_f_2_929" x="160.301" y="1.71112" width="10.0753" height="117.358" filterUnits="userSpaceOnUse" color-interpolation-filters="sRGB">
<feFlood flood-opacity="0" result="BackgroundImageFix"/>
<feBlend mode="normal" in="SourceGraphic" in2="BackgroundImageFix" result="shape"/>
<feGaussianBlur stdDeviation="0.545075" result="effect1_foregroundBlur_2_929"/>
</filter>
<filter id="filter1_f_2_929" x="160.679" y="1.86297" width="10.0753" height="117.358" filterUnits="userSpaceOnUse" color-interpolation-filters="sRGB">
<feFlood flood-opacity="0" result="BackgroundImageFix"/>
<feBlend mode="normal" in="SourceGraphic" in2="BackgroundImageFix" result="shape"/>
<feGaussianBlur stdDeviation="0.545075" result="effect1_foregroundBlur_2_929"/>
</filter>
<linearGradient id="paint0_linear_2_929" x1="172.018" y1="15.0281" x2="181.956" y2="4.48686" gradientUnits="userSpaceOnUse">
<stop stop-color="#5C7185" stop-opacity="0"/>
<stop offset="1" stop-color="#6B7687"/>
</linearGradient>
<linearGradient id="paint1_linear_2_929" x1="167.724" y1="349.403" x2="157.92" y2="357.083" gradientUnits="userSpaceOnUse">
<stop stop-color="#5C7185" stop-opacity="0"/>
<stop offset="1" stop-color="#6B7687"/>
</linearGradient>
</defs>
</svg>
