<?xml version="1.0" encoding="utf-8"?>
<!-- Generator: Adobe Illustrator 25.2.1, SVG Export Plug-In . SVG Version: 6.00 Build 0)  -->
<svg version="1.1" id="Camada_1" xmlns="http://www.w3.org/2000/svg" xmlns:xlink="http://www.w3.org/1999/xlink" x="0px" y="0px"
	 viewBox="0 0 56.9 65.7" style="enable-background:new 0 0 56.9 65.7;" xml:space="preserve">
<style type="text/css">
	.st0{fill:#FFFFFF;}
</style>
<path class="st0" d="M56.9,41.6c0-0.8-0.2-1.4-0.9-1.9c-6.7-4.9-13.5-9.9-20.2-14.9c-0.7-0.5-1.2-0.5-1.9,0c-1.3,1-2.7,2-4,3V0.9
	C29.9,0.4,29.5,0,29,0H0.9C0.4,0,0,0.4,0,0.9v64c0,0.4,0.3,0.8,0.8,0.8h3.3c0.5,0,0.8-0.4,0.8-0.8V5.4c0-0.5,0.4-0.9,0.9-0.9h18.5
	c0.4,0,0.8,0.3,0.8,0.8L25,31.5l0,0l-11.5,8.2c-0.3,0.2-0.5,0.6-0.5,1l-0.3,24.1c0,0.5,0.4,0.8,0.8,0.8H29c0.5,0,0.9-0.4,0.9-1V34.5
	c1.6-1.2,3.1-2.3,4.6-3.4c0.2-0.2,0.8,0,1.1,0.2c5,3.7,10.1,7.4,15.1,11.2c0.4,0.3,0.8,1,0.8,1.6c0.1,4.9,0,9.7,0,14.6
	c0,0.9-0.3,1.2-1.2,1.2c-1.8,0-3.6,0-5.4,0c-1.3,0-1.4,0.1-1.4,1.5c0,0.8,0,1.6,0,2.5c0,1.4,0.4,1.4,2.3,1.4c3.1,0,5.9,0,8.9,0
	c1.9,0,2.2-0.1,2.2-1.3C56.9,56.5,56.9,49,56.9,41.6z M23.9,60.3H19c-0.5,0-0.9-0.4-0.9-0.9l0.1-15.3c0-0.5,0.2-0.9,0.6-1.2l6.1-4.6
	l-0.1,21C24.9,59.9,24.5,60.3,23.9,60.3z"/>
</svg>
