<svg width="48" height="48" viewBox="0 0 48 48" fill="none" xmlns="http://www.w3.org/2000/svg">
<circle cx="24" cy="24" r="24" transform="matrix(-1 0 0 1 48 0)" fill="#F8F8F8"/>
<path d="M25.293 18.293C25.4805 18.1056 25.7348 18.0002 26 18.0002C26.2652 18.0002 26.5195 18.1056 26.707 18.293L31.207 22.793C31.3945 22.9806 31.4998 23.2349 31.4998 23.5C31.4998 23.7652 31.3945 24.0195 31.207 24.207L26.707 28.707C26.5184 28.8892 26.2658 28.99 26.0036 28.9877C25.7414 28.9854 25.4906 28.8803 25.3052 28.6948C25.1198 28.5094 25.0146 28.2586 25.0123 27.9964C25.01 27.7342 25.1108 27.4816 25.293 27.293L28 24.5H18.5C18.2348 24.5 17.9804 24.3947 17.7929 24.2071C17.6054 24.0196 17.5 23.7652 17.5 23.5C17.5 23.2348 17.6054 22.9805 17.7929 22.7929C17.9804 22.6054 18.2348 22.5 18.5 22.5H28L25.293 19.707C25.1055 19.5195 25.0002 19.2652 25.0002 19C25.0002 18.7349 25.1055 18.4806 25.293 18.293Z" fill="#049951"/>
</svg>
