<?xml version="1.0" encoding="utf-8"?>
<!-- Generator: Adobe Illustrator 25.2.1, SVG Export Plug-In . SVG Version: 6.00 Build 0)  -->
<svg version="1.1" id="Camada_1" xmlns="http://www.w3.org/2000/svg" xmlns:xlink="http://www.w3.org/1999/xlink" x="0px" y="0px"
	 viewBox="0 0 98.5 98.5" style="enable-background:new 0 0 98.5 98.5;" xml:space="preserve">
<style type="text/css">
	.st0{fill:#37C882;stroke:#37C882;stroke-width:20;}
	.st1{clip-path:url(#SVGID_2_);}
	.st2{fill:none;stroke:#FFFFFF;stroke-width:4;stroke-linecap:round;stroke-linejoin:round;}
</style>
<circle class="st0" cx="49.2" cy="49.2" r="39.2"/>
<g>
	<defs>
		<rect id="SVGID_1_" x="29.9" y="31.3" width="36" height="36"/>
	</defs>
	<clipPath id="SVGID_2_">
		<use xlink:href="#SVGID_1_"  style="overflow:visible;"/>
	</clipPath>
	<g class="st1">
		<path class="st2" d="M32.1,34.8h2.6l1.1,4.5 M35.9,39.3l3.8,15h19.5l3.8-15H35.9z"/>
		<path class="st2" d="M39.6,61.8c1.2,0,2.2-1,2.2-2.2s-1-2.2-2.2-2.2c-1.2,0-2.2,1-2.2,2.2S38.4,61.8,39.6,61.8z"/>
		<path class="st2" d="M59.1,61.8c1.2,0,2.2-1,2.2-2.2s-1-2.2-2.2-2.2c-1.2,0-2.2,1-2.2,2.2S57.9,61.8,59.1,61.8z"/>
	</g>
</g>
<g>
</g>
<g>
</g>
<g>
</g>
<g>
</g>
<g>
</g>
<g>
</g>
</svg>
