<svg width="48" height="48" viewBox="0 0 48 48" fill="none" xmlns="http://www.w3.org/2000/svg">
<circle cx="24" cy="24" r="24" transform="matrix(-1 0 0 1 48 0)" fill="#049951"/>
<path d="M25.293 18.2928C25.4805 18.1053 25.7348 18 26 18C26.2652 18 26.5195 18.1053 26.707 18.2928L31.207 22.7928C31.3945 22.9803 31.4998 23.2346 31.4998 23.4998C31.4998 23.765 31.3945 24.0193 31.207 24.2068L26.707 28.7068C26.5184 28.8889 26.2658 28.9897 26.0036 28.9875C25.7414 28.9852 25.4906 28.88 25.3052 28.6946C25.1198 28.5092 25.0146 28.2584 25.0123 27.9962C25.01 27.734 25.1108 27.4814 25.293 27.2928L28 24.4998H18.5C18.2348 24.4998 17.9804 24.3944 17.7929 24.2069C17.6054 24.0194 17.5 23.765 17.5 23.4998C17.5 23.2346 17.6054 22.9802 17.7929 22.7927C17.9804 22.6051 18.2348 22.4998 18.5 22.4998H28L25.293 19.7068C25.1055 19.5193 25.0002 19.265 25.0002 18.9998C25.0002 18.7346 25.1055 18.4803 25.293 18.2928Z" fill="#F7FFFB"/>
</svg>
