<?xml version="1.0" encoding="utf-8"?>
<!-- Generator: Adobe Illustrator 25.2.1, SVG Export Plug-In . SVG Version: 6.00 Build 0)  -->
<svg version="1.1" id="Camada_1" xmlns="http://www.w3.org/2000/svg" xmlns:xlink="http://www.w3.org/1999/xlink" x="0px" y="0px"
	 viewBox="0 0 26 26" style="enable-background:new 0 0 26 26;" xml:space="preserve">
<style type="text/css">
	.st0{fill-rule:evenodd;clip-rule:evenodd;fill:#049951;}
	.st1{fill:none;stroke:#049951;stroke-linecap:round;stroke-linejoin:round;}
</style>
<path class="st0" d="M23.6,19.6c-2.2,3.5-6.1,5.9-10.6,5.9C6.1,25.5,0.5,19.9,0.5,13C0.5,6.1,6.1,0.5,13,0.5v10.3
	c0,1.4,0.7,2.7,1.9,3.4L23.6,19.6z"/>
<path class="st1" d="M13,25.5c6.9,0,12.5-5.6,12.5-12.5c0-6.9-5.6-12.5-12.5-12.5C6.1,0.5,0.5,6.1,0.5,13C0.5,19.9,6.1,25.5,13,25.5
	z"/>
<path class="st1" d="M23.6,19.6l-8.7-5.5c-1.2-0.7-1.9-2-1.9-3.4V0.5"/>
<g>
</g>
<g>
</g>
<g>
</g>
<g>
</g>
<g>
</g>
<g>
</g>
</svg>
