<?xml version="1.0" encoding="utf-8"?>
<!-- Generator: Adobe Illustrator 25.2.1, SVG Export Plug-In . SVG Version: 6.00 Build 0)  -->
<svg version="1.1" id="Camada_1" xmlns="http://www.w3.org/2000/svg" xmlns:xlink="http://www.w3.org/1999/xlink" x="0px" y="0px"
	 viewBox="0 0 16.6 16.7" style="enable-background:new 0 0 16.6 16.7;" xml:space="preserve">
<style type="text/css">
	.st0{fill:#FFFFFF;}
</style>
<path class="st0" d="M14.2,2.4c-0.8-0.8-1.7-1.4-2.7-1.8C10.5,0.2,9.4,0,8.3,0C3.8,0,0.1,3.7,0.1,8.3c0,1.5,0.4,2.9,1.1,4.1L0,16.7
	l4.4-1.1c1.2,0.7,2.6,1,3.9,1c4.5,0,8.3-3.7,8.3-8.3C16.6,6.1,15.7,4,14.2,2.4z M8.3,15.1c-1.2,0-2.4-0.3-3.5-1L4.6,14L2,14.7
	l0.7-2.5l-0.2-0.3c-0.7-1.1-1-2.4-1-3.7c0-3.8,3.1-6.9,6.9-6.9c1.8,0,3.6,0.7,4.8,2c0.6,0.6,1.1,1.4,1.5,2.2
	c0.3,0.8,0.5,1.7,0.5,2.6C15.2,12.1,12.1,15.1,8.3,15.1z M12.1,10c-0.2-0.1-1.2-0.6-1.4-0.7c-0.2-0.1-0.3-0.1-0.5,0.1
	c-0.1,0.2-0.5,0.7-0.6,0.8c-0.1,0.1-0.2,0.2-0.5,0.1c-0.2-0.1-0.9-0.3-1.7-1C6.8,8.7,6.4,8,6.3,7.8c-0.1-0.2,0-0.3,0.1-0.4
	C6.5,7.3,6.6,7.2,6.7,7c0.1-0.1,0.1-0.2,0.2-0.3c0.1-0.1,0-0.3,0-0.4S6.4,5.2,6.3,4.8C6.1,4.4,5.9,4.5,5.8,4.4H5.4
	C5.3,4.4,5,4.5,4.8,4.7C4.7,4.9,4.1,5.4,4.1,6.4c0,1,0.7,2,0.8,2.1c0.1,0.1,1.5,2.2,3.5,3.1C9,11.9,9.4,12,9.7,12.1
	c0.5,0.2,0.9,0.1,1.3,0.1c0.4-0.1,1.2-0.5,1.4-1c0.2-0.5,0.2-0.9,0.1-1C12.4,10.1,12.3,10.1,12.1,10z"/>
<g>
</g>
<g>
</g>
<g>
</g>
<g>
</g>
<g>
</g>
<g>
</g>
</svg>
