<?xml version="1.0" encoding="utf-8"?>
<!-- Generator: Adobe Illustrator 25.2.1, SVG Export Plug-In . SVG Version: 6.00 Build 0)  -->
<svg version="1.1" id="Camada_1" xmlns="http://www.w3.org/2000/svg" xmlns:xlink="http://www.w3.org/1999/xlink" x="0px" y="0px"
	 viewBox="0 0 15.2 18" style="enable-background:new 0 0 15.2 18;" xml:space="preserve">
<style type="text/css">
	.st0{fill:#FFFFFF;}
</style>
<path class="st0" d="M12.6,17.3c-1,0.9-2.1,0.8-3.1,0.3c-1.1-0.5-2.1-0.5-3.2,0c-1.4,0.6-2.2,0.4-3.1-0.3c-4.9-5-4.2-12.7,1.4-13
	C6,4.4,6.9,5.1,7.7,5.1c1.2-0.2,2.3-0.9,3.6-0.8c1.5,0.1,2.7,0.7,3.4,1.8c-3.1,1.9-2.4,6,0.5,7.1C14.6,14.7,13.9,16.2,12.6,17.3
	L12.6,17.3z M7.6,4.2C7.5,2,9.3,0.2,11.4,0C11.6,2.6,9,4.5,7.6,4.2z"/>
<g>
</g>
<g>
</g>
<g>
</g>
<g>
</g>
<g>
</g>
<g>
</g>
</svg>
