<?xml version="1.0" encoding="utf-8"?>
<!-- Generator: Adobe Illustrator 25.2.1, SVG Export Plug-In . SVG Version: 6.00 Build 0)  -->
<svg version="1.1" id="Camada_1" xmlns="http://www.w3.org/2000/svg" xmlns:xlink="http://www.w3.org/1999/xlink" x="0px" y="0px"
	 viewBox="0 0 46.4 46.4" style="enable-background:new 0 0 46.4 46.4;" xml:space="preserve">
<style type="text/css">
	.st0{fill:#FAF8F5;stroke:#37C882;stroke-width:10;}
	.st1{fill:#37C882;}
	.st2{fill:none;stroke:#37C882;stroke-width:10;}
	.st3{fill:#FFFFFF;}
</style>
<circle class="st0" cx="23.2" cy="23.2" r="18.2"/>
<g>
	<circle class="st1" cx="23.5" cy="22.9" r="15.9"/>
	<circle class="st2" cx="23.5" cy="22.9" r="10.9"/>
</g>
<path class="st3" d="M16,33.3c-0.6,0-1.1-0.2-1.6-0.7c-0.4-0.5-0.7-1-0.7-1.6V17.2c0-0.6,0.2-1.2,0.7-1.6c0.4-0.5,1-0.7,1.6-0.7h2.2
	c0-1.3,0.4-2.3,1.3-3.2c0.9-0.9,1.9-1.4,3.2-1.4c1.2,0,2.3,0.5,3.2,1.4c0.9,0.9,1.3,2,1.3,3.2h2.2c0.6,0,1.1,0.2,1.6,0.7
	c0.4,0.5,0.7,1,0.7,1.6V31c0,0.6-0.2,1.2-0.7,1.6c-0.4,0.5-1,0.7-1.6,0.7H16z M16,31h13.5V17.2h-2.2v2.3c0,0.3-0.1,0.6-0.3,0.8
	c-0.2,0.2-0.5,0.3-0.8,0.3c-0.3,0-0.6-0.1-0.8-0.3S25,19.8,25,19.5v-2.3h-4.5v2.3c0,0.3-0.1,0.6-0.3,0.8c-0.2,0.2-0.5,0.3-0.8,0.3
	c-0.3,0-0.6-0.1-0.8-0.3s-0.3-0.5-0.3-0.8v-2.3H16V31z M20.5,14.9H25c0-0.6-0.2-1.2-0.7-1.6c-0.4-0.5-1-0.7-1.6-0.7
	c-0.6,0-1.1,0.2-1.6,0.7C20.7,13.7,20.5,14.2,20.5,14.9z"/>
<g>
</g>
<g>
</g>
<g>
</g>
<g>
</g>
<g>
</g>
<g>
</g>
</svg>
