<?xml version="1.0" encoding="utf-8"?>
<!-- Generator: Adobe Illustrator 25.2.1, SVG Export Plug-In . SVG Version: 6.00 Build 0)  -->
<svg version="1.1" id="Camada_1" xmlns="http://www.w3.org/2000/svg" xmlns:xlink="http://www.w3.org/1999/xlink" x="0px" y="0px"
	 viewBox="0 0 73.7 73.7" style="enable-background:new 0 0 73.7 73.7;" xml:space="preserve">
<style type="text/css">
	.st0{fill:#FFFFFF;}
	.st1{fill:#FF3D00;fill-opacity:0.1;}
	.st2{fill:none;stroke:#FFB199;stroke-width:4;stroke-linecap:round;stroke-linejoin:round;}
</style>
<g>
	<circle class="st0" cx="36.8" cy="36.8" r="36.8"/>
	<circle class="st1" cx="36.8" cy="36.8" r="36.8"/>
</g>
<path class="st2" d="M21.2,22.5h2.6L25,27 M25,27l3.8,15h19.5L52,27H25z"/>
<path class="st2" d="M28.7,49.5c1.2,0,2.2-1,2.2-2.2S30,45,28.7,45s-2.2,1-2.2,2.2S27.5,49.5,28.7,49.5z"/>
<path class="st2" d="M48.2,49.5c1.2,0,2.2-1,2.2-2.2s-1-2.2-2.2-2.2S46,46,46,47.2S47,49.5,48.2,49.5z"/>
<g>
</g>
<g>
</g>
<g>
</g>
<g>
</g>
<g>
</g>
<g>
</g>
</svg>
