<?xml version="1.0" encoding="utf-8"?>
<!-- Generator: Adobe Illustrator 25.2.1, SVG Export Plug-In . SVG Version: 6.00 Build 0)  -->
<svg version="1.1" id="Camada_1" xmlns="http://www.w3.org/2000/svg" xmlns:xlink="http://www.w3.org/1999/xlink" x="0px" y="0px"
	 viewBox="0 0 73.7 73.7" style="enable-background:new 0 0 73.7 73.7;" xml:space="preserve">
<style type="text/css">
	.st0{fill:#FFFFFF;}
	.st1{fill:#7B61FF;fill-opacity:0.1;}
	.st2{fill:#9180FF;}
</style>
<g>
	<circle class="st0" cx="36.8" cy="36.8" r="36.8"/>
	<circle class="st1" cx="36.8" cy="36.8" r="36.8"/>
</g>
<path class="st2" d="M50.7,50.5c0,0,2.2,0,2.2-2.2s-2.2-9-11.2-9s-11.2,6.8-11.2,9s2.2,2.2,2.2,2.2H50.7z M32.8,48.2L32.8,48.2
	c0-0.6,0.3-2.3,1.7-3.9c1.2-1.5,3.4-2.9,7.3-2.9c3.9,0,6,1.4,7.3,2.9c1.3,1.6,1.7,3.3,1.7,3.9l0,0l0,0H32.8z M41.7,34.7
	c1.2,0,2.3-0.5,3.2-1.3s1.3-2,1.3-3.2s-0.5-2.3-1.3-3.2s-2-1.3-3.2-1.3s-2.3,0.5-3.2,1.3s-1.3,2-1.3,3.2s0.5,2.3,1.3,3.2
	S40.6,34.7,41.7,34.7z M48.5,30.2c0,0.9-0.2,1.8-0.5,2.6c-0.3,0.8-0.8,1.6-1.5,2.2s-1.4,1.1-2.2,1.5c-0.8,0.3-1.7,0.5-2.6,0.5
	s-1.8-0.2-2.6-0.5c-0.8-0.3-1.6-0.8-2.2-1.5s-1.1-1.4-1.5-2.2C35.2,32,35,31.1,35,30.2c0-1.8,0.7-3.5,2-4.8c1.3-1.3,3-2,4.8-2
	s3.5,0.7,4.8,2C47.8,26.7,48.5,28.5,48.5,30.2z M32.6,39.9c-0.9-0.3-1.8-0.5-2.8-0.6c-0.5-0.1-1.1-0.1-1.6-0.1c-9,0-11.2,6.8-11.2,9
	c0,1.5,0.8,2.2,2.2,2.2h9.5c-0.3-0.7-0.5-1.5-0.5-2.2c0-2.3,0.8-4.6,2.5-6.5C31.2,41.1,31.9,40.4,32.6,39.9z M28.1,41.5
	c-1.3,2-2.1,4.3-2.1,6.8h-6.8c0-0.6,0.4-2.3,1.7-3.9C22.2,42.9,24.3,41.5,28.1,41.5L28.1,41.5z M20.4,31.4c0-1.8,0.7-3.5,2-4.8
	c1.3-1.3,3-2,4.8-2s3.5,0.7,4.8,2c1.3,1.3,2,3,2,4.8s-0.7,3.5-2,4.8c-1.3,1.3-3,2-4.8,2s-3.5-0.7-4.8-2
	C21.1,34.9,20.4,33.2,20.4,31.4z M27.1,26.9c-1.2,0-2.3,0.5-3.2,1.3s-1.3,2-1.3,3.2s0.5,2.3,1.3,3.2s2,1.3,3.2,1.3s2.3-0.5,3.2-1.3
	s1.3-2,1.3-3.2s-0.5-2.3-1.3-3.2S28.3,26.9,27.1,26.9z"/>
<g>
</g>
<g>
</g>
<g>
</g>
<g>
</g>
<g>
</g>
<g>
</g>
</svg>
