<?xml version="1.0" encoding="utf-8"?>
<!-- Generator: Adobe Illustrator 25.2.1, SVG Export Plug-In . SVG Version: 6.00 Build 0)  -->
<svg version="1.1" id="Camada_1" xmlns="http://www.w3.org/2000/svg" xmlns:xlink="http://www.w3.org/1999/xlink" x="0px" y="0px"
	 viewBox="0 0 26 24" style="enable-background:new 0 0 26 24;" xml:space="preserve">
<style type="text/css">
	.st0{fill:#049951;}
	.st1{fill-rule:evenodd;clip-rule:evenodd;fill:#049951;}
	.st2{fill:none;stroke:#049951;}
	.st3{fill:none;stroke:#FFFFFF;stroke-linecap:round;stroke-linejoin:round;}
</style>
<path class="st0" d="M0.9,6.8c0.3,0.7,1,1.1,1.7,1.1c6.8-0.1,13.6,0,20.6,0c0.8,0,1.5-0.4,1.7-1.1c0.3-0.8,0.5-1.6,0.5-2.4
	c0-0.9-0.2-1.7-0.5-2.5c-0.2-0.7-0.9-1.1-1.6-1.1C20.1,0.6,16.6,0.5,13,0.5c-3.6,0-7.1,0.1-10.5,0.2c-0.7,0-1.3,0.4-1.6,1
	C0.7,2.6,0.5,3.5,0.5,4.3C0.5,5.2,0.7,6,0.9,6.8z"/>
<path class="st1" d="M2.8,7.9c4.7-0.1,9.4,0,14.2,0c1.8,0,3.7,0,5.5,0c0.4,2.3,0.7,4.8,0.7,7.3c0,2.2-0.2,4.3-0.6,6.3
	c-0.1,0.9-0.8,1.5-1.7,1.6c-2.7,0.3-5.4,0.5-8.3,0.5c-2.3,0-4.6-0.2-6.8-0.4c-0.5,0-0.9-0.1-1.4-0.1c-0.9-0.1-1.6-0.7-1.8-1.6
	c-0.3-2-0.5-4.1-0.5-6.2C2.1,12.6,2.3,10.2,2.8,7.9z"/>
<path class="st2" d="M0.9,6.8c0.3,0.7,1,1.1,1.7,1.1c6.8-0.1,13.6,0,20.6,0c0.8,0,1.5-0.4,1.7-1.1c0.3-0.8,0.5-1.6,0.5-2.4
	c0-0.9-0.2-1.7-0.5-2.5c-0.2-0.7-0.9-1.1-1.6-1.1C20.1,0.6,16.6,0.5,13,0.5c-3.6,0-7.1,0.1-10.5,0.2c-0.7,0-1.3,0.4-1.6,1
	C0.7,2.6,0.5,3.5,0.5,4.3C0.5,5.2,0.7,6,0.9,6.8z"/>
<path class="st3" d="M9.8,13.7h5.8"/>
<path class="st2" d="M22.4,7.4c0.5,2.4,0.8,5,0.8,7.7c0,2.2-0.2,4.3-0.6,6.3c-0.1,0.9-0.8,1.5-1.7,1.6c-2.7,0.3-5.4,0.5-8.3,0.5
	c-2.8,0-5.6-0.3-8.3-0.5c-0.9-0.1-1.6-0.7-1.8-1.6c-0.3-2-0.5-4.1-0.5-6.2c0-2.7,0.3-5.3,0.8-7.7"/>
<g>
</g>
<g>
</g>
<g>
</g>
<g>
</g>
<g>
</g>
<g>
</g>
</svg>
