<?xml version="1.0" encoding="utf-8"?>
<!-- Generator: Adobe Illustrator 25.2.1, SVG Export Plug-In . SVG Version: 6.00 Build 0)  -->
<svg version="1.1" id="Camada_1" xmlns="http://www.w3.org/2000/svg" xmlns:xlink="http://www.w3.org/1999/xlink" x="0px" y="0px"
	 viewBox="0 0 19.1 19.1" style="enable-background:new 0 0 19.1 19.1;" xml:space="preserve">
<style type="text/css">
	.st0{fill:#FFFFFF;}
</style>
<path class="st0" d="M10.6,0c1.1,0,1.6,0,2.1,0l0.2,0c0.2,0,0.4,0,0.7,0c1,0,1.7,0.2,2.3,0.4c0.6,0.2,1.2,0.6,1.7,1.1
	c0.5,0.5,0.9,1.1,1.1,1.7c0.2,0.6,0.4,1.3,0.4,2.3c0,0.3,0,0.5,0,0.7l0,0.2c0,0.5,0,1,0,2.1l0,0.7v1.3c0,0.7,0,1.4,0,2.1l0,0.2
	c0,0.2,0,0.4,0,0.7c0,1-0.2,1.7-0.4,2.3c-0.2,0.6-0.6,1.2-1.1,1.7c-0.5,0.5-1.1,0.9-1.7,1.1c-0.6,0.2-1.3,0.4-2.3,0.4
	c-0.2,0-0.5,0-0.7,0l-0.2,0c-0.5,0-1,0-2.1,0l-0.7,0H8.6c-0.7,0-1.4,0-2.1,0l-0.2,0c-0.2,0-0.5,0-0.7,0c-1,0-1.7-0.2-2.3-0.4
	c-0.6-0.2-1.2-0.6-1.7-1.1c-0.5-0.5-0.9-1.1-1.1-1.7c-0.2-0.6-0.4-1.3-0.4-2.3c0-0.2,0-0.5,0-0.7l0-0.2c0-0.7,0-1.4,0-2.1v-2
	c0-0.7,0-1.4,0-2.1l0-0.2c0-0.2,0-0.4,0-0.7c0-1,0.2-1.7,0.4-2.3c0.2-0.6,0.6-1.2,1.1-1.7c0.5-0.5,1.1-0.9,1.7-1.1
	c0.6-0.2,1.3-0.4,2.3-0.4c0.3,0,0.5,0,0.7,0l0.2,0c0.7,0,1.4,0,2.1,0L10.6,0z M9.6,4.8c-1.3,0-2.5,0.5-3.4,1.4
	C5.3,7.1,4.8,8.3,4.8,9.6c0,1.3,0.5,2.5,1.4,3.4s2.1,1.4,3.4,1.4c1.3,0,2.5-0.5,3.4-1.4s1.4-2.1,1.4-3.4c0-1.3-0.5-2.5-1.4-3.4
	C12.1,5.3,10.8,4.8,9.6,4.8z M9.6,6.7c0.4,0,0.8,0.1,1.1,0.2c0.3,0.1,0.7,0.4,0.9,0.6c0.3,0.3,0.5,0.6,0.6,0.9
	c0.1,0.3,0.2,0.7,0.2,1.1c0,0.4-0.1,0.8-0.2,1.1c-0.1,0.3-0.4,0.7-0.6,0.9c-0.3,0.3-0.6,0.5-0.9,0.6c-0.3,0.1-0.7,0.2-1.1,0.2
	c-0.8,0-1.5-0.3-2-0.8c-0.5-0.5-0.8-1.3-0.8-2c0-0.8,0.3-1.5,0.8-2C8.1,7,8.8,6.7,9.6,6.7 M14.6,3.4c-0.3,0-0.6,0.1-0.8,0.4
	c-0.2,0.2-0.4,0.5-0.4,0.8s0.1,0.6,0.4,0.8c0.2,0.2,0.5,0.4,0.8,0.4c0.3,0,0.6-0.1,0.8-0.4s0.4-0.5,0.4-0.8s-0.1-0.6-0.4-0.8
	C15.2,3.5,14.9,3.4,14.6,3.4z"/>
<g>
</g>
<g>
</g>
<g>
</g>
<g>
</g>
<g>
</g>
<g>
</g>
</svg>
