<?xml version="1.0" encoding="utf-8"?>
<!-- Generator: Adobe Illustrator 25.2.1, SVG Export Plug-In . SVG Version: 6.00 Build 0)  -->
<svg version="1.1" id="Camada_1" xmlns="http://www.w3.org/2000/svg" xmlns:xlink="http://www.w3.org/1999/xlink" x="0px" y="0px"
	 viewBox="0 0 14 11" style="enable-background:new 0 0 14 11;" xml:space="preserve">
<style type="text/css">
	.st0{fill:#F7FFFB;}
</style>
<path class="st0" d="M7.8,0.3C8,0.1,8.2,0,8.5,0S9,0.1,9.2,0.3l4.5,4.5C13.9,5,14,5.2,14,5.5c0,0.3-0.1,0.5-0.3,0.7l-4.5,4.5
	C9,10.9,8.8,11,8.5,11c-0.3,0-0.5-0.1-0.7-0.3c-0.2-0.2-0.3-0.4-0.3-0.7c0-0.3,0.1-0.5,0.3-0.7l2.7-2.8H1c-0.3,0-0.5-0.1-0.7-0.3
	C0.1,6,0,5.8,0,5.5C0,5.2,0.1,5,0.3,4.8C0.5,4.6,0.7,4.5,1,4.5h9.5L7.8,1.7C7.6,1.5,7.5,1.3,7.5,1S7.6,0.5,7.8,0.3z"/>
<g>
</g>
<g>
</g>
<g>
</g>
<g>
</g>
<g>
</g>
<g>
</g>
</svg>
