<?xml version="1.0" encoding="utf-8"?>
<!-- Generator: Adobe Illustrator 25.2.1, SVG Export Plug-In . SVG Version: 6.00 Build 0)  -->
<svg version="1.1" id="Camada_1" xmlns="http://www.w3.org/2000/svg" xmlns:xlink="http://www.w3.org/1999/xlink" x="0px" y="0px"
	 viewBox="0 0 25 27.2" style="enable-background:new 0 0 25 27.2;" xml:space="preserve">
<style type="text/css">
	.st0{fill-rule:evenodd;clip-rule:evenodd;fill:#049951;}
</style>
<path class="st0" d="M23.1,15.5C23,15.4,23,15.3,23,15.2V12c0-0.1,0-0.2,0.1-0.3l1.5-1.8C24.8,9.6,25,9.2,25,8.8
	c0-0.4-0.1-0.8-0.3-1.2l-0.9-1.5c-0.2-0.4-0.5-0.7-0.9-0.8C22.6,5,22.2,5,21.7,5l-2.3,0.4c-0.1,0-0.2,0-0.3-0.1l-2.7-1.6
	c-0.1-0.1-0.2-0.1-0.2-0.3l-0.9-2.2c-0.2-0.4-0.4-0.7-0.8-1C14.2,0.1,13.8,0,13.4,0h-1.7c-0.4,0-0.8,0.1-1.2,0.4
	c-0.3,0.2-0.6,0.6-0.8,1L8.8,3.5c0,0.1-0.1,0.2-0.2,0.2L5.9,5.3C5.8,5.4,5.7,5.4,5.6,5.4L3.3,5C2.8,5,2.4,5,2,5.2
	C1.7,5.4,1.3,5.7,1.1,6.1L0.3,7.5C0.1,7.9,0,8.3,0,8.8c0,0.4,0.2,0.8,0.5,1.1l1.5,1.8C2,11.8,2,11.9,2,12v3.2c0,0.1,0,0.2-0.1,0.3
	l-1.5,1.8C0.2,17.7,0,18.1,0,18.5c0,0.4,0.1,0.8,0.3,1.2l0.9,1.5C1.3,21.5,1.7,21.8,2,22c0.4,0.2,0.8,0.2,1.2,0.2l2.3-0.4
	c0.1,0,0.2,0,0.3,0.1l2.7,1.6c0.1,0.1,0.2,0.1,0.2,0.2l0.9,2.2c0.2,0.4,0.4,0.7,0.8,1c0.3,0.2,0.8,0.4,1.2,0.4h1.7
	c0.4,0,0.8-0.1,1.2-0.4c0.3-0.2,0.6-0.6,0.8-1l0.9-2.2c0-0.1,0.1-0.2,0.2-0.2l2.7-1.6c0.1-0.1,0.2-0.1,0.3-0.1l2.3,0.4
	c0.4,0.1,0.8,0,1.2-0.2c0.4-0.2,0.7-0.5,0.9-0.8l0.9-1.5c0.2-0.4,0.3-0.8,0.3-1.2c0-0.4-0.2-0.8-0.5-1.1L23.1,15.5z M12.5,19.9
	c3.5,0,6.3-2.8,6.3-6.3c0-3.5-2.8-6.3-6.3-6.3c-3.5,0-6.3,2.8-6.3,6.3C6.2,17.1,9,19.9,12.5,19.9z"/>
<g>
</g>
<g>
</g>
<g>
</g>
<g>
</g>
<g>
</g>
<g>
</g>
</svg>
