<?xml version="1.0" encoding="utf-8"?>
<!-- Generator: Adobe Illustrator 25.2.1, SVG Export Plug-In . SVG Version: 6.00 Build 0)  -->
<svg version="1.1" id="Camada_1" xmlns="http://www.w3.org/2000/svg" xmlns:xlink="http://www.w3.org/1999/xlink" x="0px" y="0px"
	 viewBox="0 0 17.3 19" style="enable-background:new 0 0 17.3 19;" xml:space="preserve">
<style type="text/css">
	.st0{fill:#FFFFFF;}
</style>
<path class="st0" d="M0.3,0.9L9,9.5l-8.7,8.7C0.2,18,0.1,17.8,0,17.5c0-0.3,0-0.5,0-0.8V2.1C0,1.7,0.1,1.3,0.3,0.9 M12.8,5.8
	L9.9,8.6L1.3,0.1C1.6,0,1.9,0,2.2,0c0.5,0.1,0.9,0.3,1.3,0.6l7.8,4.3C11.8,5.2,12.3,5.5,12.8,5.8z M9.9,10.4l2.8,2.8l-2.1,1.1
	l-6.3,3.5c-0.5,0.3-1,0.6-1.6,0.9C2.7,18.9,2.4,19,2.2,19s-0.5,0-0.8-0.1L9.9,10.4z M17.3,9.5c0,0.3-0.1,0.7-0.3,1
	c-0.2,0.3-0.4,0.6-0.7,0.7L14,12.5l-3.1-3L14,6.4c0.8,0.4,1.6,0.9,2.4,1.3c0.3,0.2,0.6,0.4,0.7,0.7C17.2,8.8,17.3,9.1,17.3,9.5z"/>
<g>
</g>
<g>
</g>
<g>
</g>
<g>
</g>
<g>
</g>
<g>
</g>
</svg>
