<?xml version="1.0" encoding="utf-8"?>
<!-- Generator: Adobe Illustrator 25.2.1, SVG Export Plug-In . SVG Version: 6.00 Build 0)  -->
<svg version="1.1" id="Camada_1" xmlns="http://www.w3.org/2000/svg" xmlns:xlink="http://www.w3.org/1999/xlink" x="0px" y="0px"
	 viewBox="0 0 73.7 73.7" style="enable-background:new 0 0 73.7 73.7;" xml:space="preserve">
<style type="text/css">
	.st0{fill:#FFFFFF;}
	.st1{fill:#FFA800;fill-opacity:0.1;}
	.st2{fill:#FFD680;}
</style>
<g>
	<circle class="st0" cx="36.8" cy="36.8" r="36.8"/>
	<circle class="st1" cx="36.8" cy="36.8" r="36.8"/>
</g>
<path class="st2" d="M28,52c-0.8,0-1.5-0.3-2.1-0.9C25.3,50.5,25,49.8,25,49V31c0-0.8,0.3-1.5,0.9-2.1c0.6-0.6,1.3-0.9,2.1-0.9h3
	c0-1.7,0.6-3.1,1.8-4.2c1.2-1.2,2.6-1.8,4.2-1.8s3.1,0.6,4.2,1.8c1.2,1.2,1.8,2.6,1.8,4.2h3c0.8,0,1.5,0.3,2.1,0.9
	c0.6,0.6,0.9,1.3,0.9,2.1v18c0,0.8-0.3,1.5-0.9,2.1S46.8,52,46,52H28z M28,49h18V31h-3v3c0,0.4-0.1,0.8-0.4,1.1
	c-0.3,0.3-0.6,0.4-1.1,0.4s-0.8-0.1-1.1-0.4S40,34.4,40,34v-3h-6v3c0,0.4-0.1,0.8-0.4,1.1c-0.3,0.3-0.6,0.4-1.1,0.4
	s-0.8-0.1-1.1-0.4S31,34.4,31,34v-3h-3V49z M34,28h6c0-0.8-0.3-1.5-0.9-2.1C38.5,25.3,37.8,25,37,25s-1.5,0.3-2.1,0.9
	C34.3,26.5,34,27.2,34,28z"/>
<g>
</g>
<g>
</g>
<g>
</g>
<g>
</g>
<g>
</g>
<g>
</g>
</svg>
