<?xml version="1.0" encoding="utf-8"?>
<!-- Generator: Adobe Illustrator 25.2.1, SVG Export Plug-In . SVG Version: 6.00 Build 0)  -->
<svg version="1.1" id="Camada_1" xmlns="http://www.w3.org/2000/svg" xmlns:xlink="http://www.w3.org/1999/xlink" x="0px" y="0px"
	 viewBox="0 0 203 67" style="enable-background:new 0 0 203 67;" xml:space="preserve">
<style type="text/css">
	.st0{fill:#FFFFFF;}
</style>
<path class="st0" d="M90.2,45.9c-0.8-0.7-1.7-1.2-2.6-1.5c-1-0.3-2-0.5-3.1-0.5c-2,0-3.8,0.7-5.2,2c-1.4,1.3-2.1,3-2.1,5
	c0,1.5,0.3,2.9,0.9,4.1c0.6,1.2,1.5,2.2,2.6,2.9c1.1,0.7,2.4,1.1,3.9,1.1c2.2,0,4.1-0.7,5.6-2.1l4.9,6.3c-0.7,0.8-1.7,1.4-3,2
	c-1.3,0.6-2.6,1-4,1.3c-1.4,0.3-2.6,0.4-3.8,0.4c-3.2,0-6.1-0.7-8.5-2.1c-2.5-1.4-4.4-3.2-5.7-5.5c-1.3-2.3-2-4.7-2-7.4
	c0-2.4,0.4-4.5,1.2-6.5c0.8-2,1.9-3.7,3.4-5.1C74.3,39,76,38,78,37.2c2-0.8,4.2-1.2,6.5-1.2c1.9,0,3.7,0.3,5.5,0.9
	c1.8,0.6,3.4,1.5,4.8,2.6L90.2,45.9z"/>
<path class="st0" d="M101.7,65c-2.5-1.4-4.5-3.2-6-5.6c-1.5-2.4-2.3-5-2.3-8c0-2.2,0.4-4.2,1.3-6.1c0.9-1.9,2.1-3.5,3.6-4.9
	c1.5-1.4,3.3-2.5,5.3-3.2c2-0.8,4.1-1.1,6.2-1.1c2.1,0,4.2,0.4,6.2,1.1c2,0.7,3.7,1.8,5.3,3.2c1.5,1.4,2.7,3.1,3.6,5
	c0.9,1.9,1.3,3.9,1.3,6.1c0,2.2-0.4,4.3-1.3,6.1c-0.9,1.9-2.1,3.5-3.6,5c-1.6,1.4-3.3,2.5-5.3,3.2c-1.9,0.8-4,1.2-6.2,1.2
	C106.9,67,104.2,66.3,101.7,65z M104.5,56.7c1.5,1.4,3.2,2.2,5.2,2.2c2,0,3.8-0.7,5.2-2.2c1.5-1.4,2.2-3.2,2.2-5.2
	c0-1.3-0.3-2.5-1-3.6c-0.7-1.1-1.6-2-2.8-2.7c-1.1-0.7-2.4-1-3.7-1c-1.3,0-2.5,0.3-3.6,1c-1.2,0.7-2.1,1.5-2.8,2.7s-1,2.3-1,3.6
	C102.3,53.5,103.1,55.2,104.5,56.7z"/>
<path class="st0" d="M152.7,48.3v17.8h-8.9V48.3c-0.1-2.7-1.3-4-3.4-4.1h-0.5c-2.3,0.1-3.4,1.7-3.4,4.8v17.1h-8.9V49
	c0-8.2,4.1-12.5,12.3-12.9h0.5c3.3,0.2,5.9,1,7.9,2.4c1.9-1.4,4.6-2.2,7.8-2.4h0.5c8.2,0.4,12.3,4.8,12.3,12.9v17.1H160V49
	c0-3.1-1.1-4.7-3.4-4.8h-0.5C154,44.3,152.9,45.7,152.7,48.3z"/>
<path class="st0" d="M203,51.7c0,2.9-0.8,5.4-2.3,7.8c-1.5,2.4-3.5,4.2-6,5.5c-2.5,1.4-5.2,2-8,2c-2.2,0-4.2-0.4-6.2-1.2
	c-1.9-0.7-3.7-1.8-5.3-3.2c-1.6-1.4-2.8-3.1-3.6-5c-0.9-1.9-1.3-3.9-1.3-6.1c0-2.2,0.4-4.2,1.3-6.1c0.9-1.9,2.1-3.5,3.6-4.9
	c1.6-1.4,3.3-2.5,5.3-3.2c2-0.7,4.1-1.1,6.2-1.1c2.1,0,4.2,0.4,6.2,1.1l0.6,0.3l0.6,0.3V25.9l8.9,0V51.7z M194.1,51.5
	c0-1.3-0.3-2.5-1-3.6c-0.7-1.1-1.6-2-2.8-2.7c-1.1-0.7-2.3-1-3.6-1c-1.3,0-2.5,0.3-3.7,1c-1.2,0.7-2.1,1.5-2.8,2.7
	c-0.7,1.1-1,2.3-1,3.6c0,2,0.7,3.7,2.2,5.2c1.5,1.4,3.2,2.2,5.2,2.2c2,0,3.7-0.7,5.2-2.2C193.4,55.2,194.1,53.5,194.1,51.5z"/>
<path class="st0" d="M56.9,41.6c0-0.8-0.2-1.4-0.9-1.9c-6.7-4.9-13.5-9.9-20.2-14.9c-0.7-0.5-1.2-0.5-1.9,0c-1.3,1-2.7,2-4,3V0.9
	c0-0.5-0.4-0.9-0.9-0.9H0.9C0.4,0,0,0.4,0,0.9v64c0,0.4,0.3,0.8,0.8,0.8h3.3c0.5,0,0.8-0.4,0.8-0.8V5.4c0-0.5,0.4-0.9,0.9-0.9h18.5
	c0.4,0,0.8,0.3,0.8,0.8L25,31.5c0,0,0,0,0,0l-11.5,8.2c-0.3,0.2-0.5,0.6-0.5,1l-0.3,24.1c0,0.5,0.4,0.8,0.8,0.8H29
	c0.5,0,0.9-0.4,0.9-1V34.5c1.6-1.2,3.1-2.3,4.6-3.4c0.2-0.2,0.8,0,1.1,0.2c5,3.7,10.1,7.4,15.1,11.2c0.4,0.3,0.8,1,0.8,1.6
	c0.1,4.9,0,9.7,0,14.6c0,0.9-0.3,1.2-1.2,1.2c-1.8,0-3.6,0-5.4,0c-1.3,0-1.4,0.1-1.4,1.5c0,0.8,0,1.6,0,2.5c0,1.4,0.4,1.4,2.3,1.4
	c3.1,0,5.9,0,8.9,0c1.9,0,2.2-0.1,2.2-1.3C56.9,56.5,56.9,49,56.9,41.6z M23.9,60.3H19c-0.5,0-0.9-0.4-0.9-0.9l0.1-15.3
	c0-0.5,0.2-0.9,0.6-1.2l6.1-4.6l-0.1,21C24.9,59.9,24.5,60.3,23.9,60.3z"/>
<g>
</g>
<g>
</g>
<g>
</g>
<g>
</g>
<g>
</g>
<g>
</g>
</svg>
