<?xml version="1.0" encoding="utf-8"?>
<!-- Generator: Adobe Illustrator 25.2.1, SVG Export Plug-In . SVG Version: 6.00 Build 0)  -->
<svg version="1.1" id="Camada_1" xmlns="http://www.w3.org/2000/svg" xmlns:xlink="http://www.w3.org/1999/xlink" x="0px" y="0px"
	 viewBox="0 0 48 48" style="enable-background:new 0 0 48 48;" xml:space="preserve">
<style type="text/css">
	.st0{fill:#049951;}
	.st1{fill:#FFFFFF;}
	.st2{fill:none;stroke:#FFFFFF;stroke-width:2.6667;stroke-linecap:round;stroke-linejoin:round;}
</style>
<path class="st0" d="M8,0h32c4.4,0,8,3.6,8,8v32c0,4.4-3.6,8-8,8H8c-4.4,0-8-3.6-8-8V8C0,3.6,3.6,0,8,0z"/>
<path class="st1" d="M10.7,12v-1.3c-0.4,0-0.7,0.1-0.9,0.4c-0.3,0.2-0.4,0.6-0.4,0.9H10.7z M25.3,12h1.3c0-0.4-0.1-0.7-0.4-0.9
	c-0.3-0.3-0.6-0.4-0.9-0.4V12z M25.3,20v-1.3c-0.4,0-0.7,0.1-0.9,0.4C24.1,19.3,24,19.6,24,20H25.3z M10.7,13.3h14.7v-2.7H10.7V13.3
	z M24,12v21.3h2.7V12H24z M12,30.7V12H9.3v18.7H12z M25.3,21.3H32v-2.7h-6.7V21.3z M36,25.3v5.3h2.7v-5.3H36z M26.7,33.3V20H24v13.3
	H26.7z M32.9,34.3c-0.2,0.2-0.6,0.4-0.9,0.4c-0.4,0-0.7-0.1-0.9-0.4l-1.9,1.9c0.8,0.7,1.8,1.2,2.8,1.2c1.1,0,2.1-0.4,2.8-1.2
	L32.9,34.3z M31.1,32.4c0.2-0.2,0.6-0.4,0.9-0.4c0.4,0,0.7,0.1,0.9,0.4l1.9-1.9c-0.8-0.7-1.8-1.2-2.8-1.2c-1.1,0-2.1,0.4-2.8,1.2
	L31.1,32.4z M16.9,34.3c-0.2,0.2-0.6,0.4-0.9,0.4c-0.4,0-0.7-0.1-0.9-0.4l-1.9,1.9c0.8,0.7,1.8,1.2,2.8,1.2c1.1,0,2.1-0.4,2.8-1.2
	L16.9,34.3z M15.1,32.4c0.2-0.2,0.6-0.4,0.9-0.4c0.4,0,0.7,0.1,0.9,0.4l1.9-1.9c-0.8-0.7-1.8-1.2-2.8-1.2c-1.1,0-2.1,0.4-2.8,1.2
	L15.1,32.4z M32.9,32.4c0.3,0.3,0.4,0.6,0.4,0.9H36c0-1-0.4-2-1.2-2.8L32.9,32.4z M33.3,33.3c0,0.2,0,0.3-0.1,0.5s-0.2,0.3-0.3,0.4
	l1.9,1.9c0.4-0.4,0.7-0.8,0.9-1.3c0.2-0.5,0.3-1,0.3-1.5H33.3z M29.3,32h-4v2.7h4V32z M31.1,34.3c-0.1-0.1-0.2-0.3-0.3-0.4
	c-0.1-0.2-0.1-0.3-0.1-0.5H28c0,1,0.4,2,1.2,2.8L31.1,34.3z M30.7,33.3c0-0.2,0-0.3,0.1-0.5c0.1-0.2,0.2-0.3,0.3-0.4l-1.9-1.9
	c-0.4,0.4-0.7,0.8-0.9,1.3c-0.2,0.5-0.3,1-0.3,1.5H30.7z M15.1,34.3c-0.1-0.1-0.2-0.3-0.3-0.4c-0.1-0.2-0.1-0.3-0.1-0.5H12
	c0,1,0.4,2,1.2,2.8L15.1,34.3z M14.7,33.3c0-0.2,0-0.3,0.1-0.5c0.1-0.2,0.2-0.3,0.3-0.4l-1.9-1.9c-0.4,0.4-0.7,0.8-0.9,1.3
	c-0.2,0.5-0.3,1-0.3,1.5H14.7z M25.3,32h-6.7v2.7h6.7V32z M16.9,32.4c0.3,0.3,0.4,0.6,0.4,0.9H20c0-1-0.4-2-1.2-2.8L16.9,32.4z
	 M17.3,33.3c0,0.2,0,0.3-0.1,0.5c-0.1,0.2-0.2,0.3-0.3,0.4l1.9,1.9c0.4-0.4,0.7-0.8,0.9-1.3c0.2-0.5,0.3-1,0.3-1.5H17.3z M36,30.7
	c0,0.4-0.1,0.7-0.4,0.9C35.4,31.9,35,32,34.7,32v2.7c1.1,0,2.1-0.4,2.8-1.2c0.8-0.8,1.2-1.8,1.2-2.8H36z M32,21.3
	c1.1,0,2.1,0.4,2.8,1.2c0.8,0.8,1.2,1.8,1.2,2.8h2.7c0-0.9-0.2-1.7-0.5-2.6c-0.3-0.8-0.8-1.5-1.4-2.2c-0.6-0.6-1.4-1.1-2.2-1.4
	c-0.8-0.3-1.7-0.5-2.6-0.5V21.3z M9.3,30.7c0,1.1,0.4,2.1,1.2,2.8c0.8,0.8,1.8,1.2,2.8,1.2V32c-0.4,0-0.7-0.1-0.9-0.4
	C12.1,31.4,12,31,12,30.7H9.3z"/>
<path class="st2" d="M10.7,18.7h4 M10.7,24h6.7"/>
<g>
</g>
<g>
</g>
<g>
</g>
<g>
</g>
<g>
</g>
<g>
</g>
</svg>
