<?xml version="1.0" encoding="utf-8"?>
<!-- Generator: Adobe Illustrator 25.2.1, SVG Export Plug-In . SVG Version: 6.00 Build 0)  -->
<svg version="1.1" id="Camada_1" xmlns="http://www.w3.org/2000/svg" xmlns:xlink="http://www.w3.org/1999/xlink" x="0px" y="0px"
	 viewBox="0 0 48 48" style="enable-background:new 0 0 48 48;" xml:space="preserve">
<style type="text/css">
	.st0{fill:#049951;}
	.st1{fill:#FFFFFF;}
</style>
<path class="st0" d="M8,0h32c4.4,0,8,3.6,8,8v32c0,4.4-3.6,8-8,8H8c-4.4,0-8-3.6-8-8V8C0,3.6,3.6,0,8,0z"/>
<path class="st1" d="M22,36c0,0-2,0-2-2s2-8,10-8s10,6,10,8s-2,2-2,2H22z M30,24c1.6,0,3.1-0.6,4.2-1.8c1.1-1.1,1.8-2.7,1.8-4.2
	s-0.6-3.1-1.8-4.2C33.1,12.6,31.6,12,30,12s-3.1,0.6-4.2,1.8C24.6,14.9,24,16.4,24,18s0.6,3.1,1.8,4.2C26.9,23.4,28.4,24,30,24z
	 M18.4,36c-0.3-0.6-0.4-1.3-0.4-2c0-2.7,1.4-5.5,3.9-7.4C20.6,26.2,19.3,26,18,26c-8,0-10,6-10,8s2,2,2,2H18.4z M17,24
	c1.3,0,2.6-0.5,3.5-1.5c0.9-0.9,1.5-2.2,1.5-3.5s-0.5-2.6-1.5-3.5C19.6,14.5,18.3,14,17,14s-2.6,0.5-3.5,1.5
	C12.5,16.4,12,17.7,12,19s0.5,2.6,1.5,3.5C14.4,23.5,15.7,24,17,24z"/>
<g>
</g>
<g>
</g>
<g>
</g>
<g>
</g>
<g>
</g>
<g>
</g>
</svg>
