<?xml version="1.0" encoding="utf-8"?>
<!-- Generator: Adobe Illustrator 25.2.1, SVG Export Plug-In . SVG Version: 6.00 Build 0)  -->
<svg version="1.1" id="Camada_1" xmlns="http://www.w3.org/2000/svg" xmlns:xlink="http://www.w3.org/1999/xlink" x="0px" y="0px"
	 viewBox="0 0 48 48" style="enable-background:new 0 0 48 48;" xml:space="preserve">
<style type="text/css">
	.st0{fill:#049951;}
	.st1{fill:#FFFFFF;}
</style>
<path class="st0" d="M8,0h32c4.4,0,8,3.6,8,8v32c0,4.4-3.6,8-8,8H8c-4.4,0-8-3.6-8-8V8C0,3.6,3.6,0,8,0z"/>
<path class="st1" d="M22,24.6L19.4,22L18,23.4l4,4l8-8L28.6,18L22,24.6z"/>
<path class="st1" d="M24,38l-6.2-3.3c-1.8-0.9-3.2-2.3-4.3-4C12.5,29,12,27,12,25V12c0-0.5,0.2-1,0.6-1.4S13.5,10,14,10h20
	c0.5,0,1,0.2,1.4,0.6S36,11.5,36,12v13c0,2-0.5,4-1.6,5.7c-1,1.7-2.5,3.1-4.3,4L24,38z M14,12v13c0,1.6,0.4,3.2,1.3,4.6
	s2,2.5,3.5,3.3l5.2,2.8l5.2-2.8c1.4-0.8,2.6-1.9,3.5-3.3c0.8-1.4,1.3-3,1.3-4.6V12H14z"/>
<g>
</g>
<g>
</g>
<g>
</g>
<g>
</g>
<g>
</g>
<g>
</g>
</svg>
