<?xml version="1.0" encoding="utf-8"?>
<!-- Generator: Adobe Illustrator 25.2.1, SVG Export Plug-In . SVG Version: 6.00 Build 0)  -->
<svg version="1.1" id="Camada_1" xmlns="http://www.w3.org/2000/svg" xmlns:xlink="http://www.w3.org/1999/xlink" x="0px" y="0px"
	 viewBox="0 0 48 48" style="enable-background:new 0 0 48 48;" xml:space="preserve">
<style type="text/css">
	.st0{fill:#049951;}
	.st1{fill:#F7FFFB;}
</style>
<path class="st0" d="M8,0h32c4.4,0,8,3.6,8,8v32c0,4.4-3.6,8-8,8H8c-4.4,0-8-3.6-8-8V8C0,3.6,3.6,0,8,0z"/>
<path class="st1" d="M28.7,26.7h-1.1l-0.4-0.4c1.4-1.6,2.1-3.6,2.1-5.6c0-1.7-0.5-3.4-1.5-4.8c-1-1.4-2.3-2.5-3.9-3.2
	c-1.6-0.7-3.3-0.8-5-0.5s-3.2,1.2-4.4,2.4c-1.2,1.2-2,2.8-2.4,4.4s-0.2,3.4,0.5,5c0.7,1.6,1.8,2.9,3.2,3.9c1.4,1,3.1,1.5,4.8,1.5
	c2.1,0,4.1-0.8,5.6-2.1l0.4,0.4v1.1l6.7,6.7l2-2L28.7,26.7z M20.7,26.7c-3.3,0-6-2.7-6-6s2.7-6,6-6s6,2.7,6,6S24,26.7,20.7,26.7z"/>
<g>
</g>
<g>
</g>
<g>
</g>
<g>
</g>
<g>
</g>
<g>
</g>
</svg>
